<svg width="0" height="0" class="hidden">
	<symbol xmlns="http://www.w3.org/2000/svg" fill="currentColor" viewBox="0 0 16 16" id="controller">
		<path d="M11.5 6.027a.5.5 0 1 1-1 0 .5.5 0 0 1 1 0m-1.5 1.5a.5.5 0 1 0 0-1 .5.5 0 0 0 0 1m2.5-.5a.5.5 0 1 1-1 0 .5.5 0 0 1 1 0m-1.5 1.5a.5.5 0 1 0 0-1 .5.5 0 0 0 0 1m-6.5-3h1v1h1v1h-1v1h-1v-1h-1v-1h1z"></path>
		<path d="M3.051 3.26a.5.5 0 0 1 .354-.613l1.932-.518a.5.5 0 0 1 .62.39c.655-.079 1.35-.117 2.043-.117.72 0 1.443.041 2.12.126a.5.5 0 0 1 .622-.399l1.932.518a.5.5 0 0 1 .306.729q.211.136.373.297c.408.408.78 1.05 1.095 1.772.32.733.599 1.591.805 2.466s.34 1.78.364 2.606c.024.816-.059 1.602-.328 2.21a1.42 1.42 0 0 1-1.445.83c-.636-.067-1.115-.394-1.513-.773-.245-.232-.496-.526-.739-.808-.126-.148-.25-.292-.368-.423-.728-.804-1.597-1.527-3.224-1.527s-2.496.723-3.224 1.527c-.119.131-.242.275-.368.423-.243.282-.494.575-.739.808-.398.38-.877.706-1.513.773a1.42 1.42 0 0 1-1.445-.83c-.27-.608-.352-1.395-.329-2.21.024-.826.16-1.73.365-2.606.206-.875.486-1.733.805-2.466.315-.722.687-1.364 1.094-1.772a2.3 2.3 0 0 1 .433-.335l-.028-.079zm2.036.412c-.877.185-1.469.443-1.733.708-.276.276-.587.783-.885 1.465a14 14 0 0 0-.748 2.295 12.4 12.4 0 0 0-.339 2.406c-.022.755.062 1.368.243 1.776a.42.42 0 0 0 .426.24c.327-.034.61-.199.929-.502.212-.202.4-.423.615-.674.133-.156.276-.323.44-.504C4.861 9.969 5.978 9.027 8 9.027s3.139.942 3.965 1.855c.164.181.307.348.44.504.214.251.403.472.615.674.318.303.601.468.929.503a.42.42 0 0 0 .426-.241c.18-.408.265-1.02.243-1.776a12.4 12.4 0 0 0-.339-2.406 14 14 0 0 0-.748-2.295c-.298-.682-.61-1.19-.885-1.465-.264-.265-.856-.523-1.733-.708-.85-.179-1.877-.27-2.913-.27s-2.063.091-2.913.27"></path>
	</symbol>
	<symbol xmlns="http://www.w3.org/2000/svg" fill="currentColor" viewBox="0 0 16 16" id="person-workspace">
		<path d="M4 16s-1 0-1-1 1-4 5-4 5 3 5 4-1 1-1 1zm4-5.95a2.5 2.5 0 1 0 0-5 2.5 2.5 0 0 0 0 5"></path>
		<path d="M2 1a2 2 0 0 0-2 2v9.5A1.5 1.5 0 0 0 1.5 14h.653a5.4 5.4 0 0 1 1.066-2H1V3a1 1 0 0 1 1-1h12a1 1 0 0 1 1 1v9h-2.219c.554.654.89 1.373 1.066 2h.653a1.5 1.5 0 0 0 1.5-1.5V3a2 2 0 0 0-2-2z"></path>
	</symbol>
	<symbol xmlns="http://www.w3.org/2000/svg" fill="currentColor" viewBox="0 0 16 16" id="trash">
		<path d="M5.5 5.5A.5.5 0 0 1 6 6v6a.5.5 0 0 1-1 0V6a.5.5 0 0 1 .5-.5m2.5 0a.5.5 0 0 1 .5.5v6a.5.5 0 0 1-1 0V6a.5.5 0 0 1 .5-.5m3 .5a.5.5 0 0 0-1 0v6a.5.5 0 0 0 1 0z"></path>
		<path d="M14.5 3a1 1 0 0 1-1 1H13v9a2 2 0 0 1-2 2H5a2 2 0 0 1-2-2V4h-.5a1 1 0 0 1-1-1V2a1 1 0 0 1 1-1H6a1 1 0 0 1 1-1h2a1 1 0 0 1 1 1h3.5a1 1 0 0 1 1 1zM4.118 4 4 4.059V13a1 1 0 0 0 1 1h6a1 1 0 0 0 1-1V4.059L11.882 4zM2.5 3h11V2h-11z"></path>
	</symbol>
	<symbol xmlns="http://www.w3.org/2000/svg" fill="currentColor" viewBox="0 0 16 16" id="x-circle">
		<path d="M8 15A7 7 0 1 1 8 1a7 7 0 0 1 0 14m0 1A8 8 0 1 0 8 0a8 8 0 0 0 0 16"></path>
		<path d="M4.646 4.646a.5.5 0 0 1 .708 0L8 7.293l2.646-2.647a.5.5 0 0 1 .708.708L8.707 8l2.647 2.646a.5.5 0 0 1-.708.708L8 8.707l-2.646 2.647a.5.5 0 0 1-.708-.708L7.293 8 4.646 5.354a.5.5 0 0 1 0-.708"></path>
	</symbol>
	<symbol xmlns="http://www.w3.org/2000/svg" fill="currentColor" viewBox="0 0 16 16" id="file-earmark-plus">
		<path d="M8 6.5a.5.5 0 0 1 .5.5v1.5H10a.5.5 0 0 1 0 1H8.5V11a.5.5 0 0 1-1 0V9.5H6a.5.5 0 0 1 0-1h1.5V7a.5.5 0 0 1 .5-.5"></path>
		<path d="M14 4.5V14a2 2 0 0 1-2 2H4a2 2 0 0 1-2-2V2a2 2 0 0 1 2-2h5.5zm-3 0A1.5 1.5 0 0 1 9.5 3V1H4a1 1 0 0 0-1 1v12a1 1 0 0 0 1 1h8a1 1 0 0 0 1-1V4.5z"></path>
	</symbol>
	<symbol xmlns="http://www.w3.org/2000/svg" fill="currentColor" viewBox="0 0 16 16" id="folder-plus">
		<path d="m.5 3 .04.87a2 2 0 0 0-.342 1.311l.637 7A2 2 0 0 0 2.826 14H9v-1H2.826a1 1 0 0 1-.995-.91l-.637-7A1 1 0 0 1 2.19 4h11.62a1 1 0 0 1 .996 1.09L14.54 8h1.005l.256-2.819A2 2 0 0 0 13.81 3H9.828a2 2 0 0 1-1.414-.586l-.828-.828A2 2 0 0 0 6.172 1H2.5a2 2 0 0 0-2 2m5.672-1a1 1 0 0 1 .707.293L7.586 3H2.19q-.362.002-.683.12L1.5 2.98a1 1 0 0 1 1-.98z"></path>
		<path d="M13.5 9a.5.5 0 0 1 .5.5V11h1.5a.5.5 0 1 1 0 1H14v1.5a.5.5 0 1 1-1 0V12h-1.5a.5.5 0 0 1 0-1H13V9.5a.5.5 0 0 1 .5-.5"></path>
	</symbol>
	<symbol xmlns="http://www.w3.org/2000/svg" fill="currentColor" viewBox="0 0 16 16" id="plus-circle">
		<path d="M8 15A7 7 0 1 1 8 1a7 7 0 0 1 0 14m0 1A8 8 0 1 0 8 0a8 8 0 0 0 0 16"></path>
		<path d="M8 4a.5.5 0 0 1 .5.5v3h3a.5.5 0 0 1 0 1h-3v3a.5.5 0 0 1-1 0v-3h-3a.5.5 0 0 1 0-1h3v-3A.5.5 0 0 1 8 4"></path>
	</symbol>
	<symbol xmlns="http://www.w3.org/2000/svg" fill="currentColor" viewBox="0 0 16 16" id="cloud-download">
		<path d="M4.406 1.342A5.53 5.53 0 0 1 8 0c2.69 0 4.923 2 5.166 4.579C14.758 4.804 16 6.137 16 7.773 16 9.569 14.502 11 12.687 11H10a.5.5 0 0 1 0-1h2.688C13.979 10 15 8.988 15 7.773c0-1.216-1.02-2.228-2.313-2.228h-.5v-.5C12.188 2.825 10.328 1 8 1a4.53 4.53 0 0 0-2.941 1.1c-.757.652-1.153 1.438-1.153 2.055v.448l-.445.049C2.064 4.805 1 5.952 1 7.318 1 8.785 2.23 10 3.781 10H6a.5.5 0 0 1 0 1H3.781C1.708 11 0 9.366 0 7.318c0-1.763 1.266-3.223 2.942-3.593.143-.863.698-1.723 1.464-2.383"></path>
		<path d="M7.646 15.854a.5.5 0 0 0 .708 0l3-3a.5.5 0 0 0-.708-.708L8.5 14.293V5.5a.5.5 0 0 0-1 0v8.793l-2.146-2.147a.5.5 0 0 0-.708.708z"></path>
	</symbol>
	<symbol xmlns="http://www.w3.org/2000/svg" fill="currentColor" viewBox="0 0 16 16" id="cloud-upload">
		<path fill-rule="evenodd" d="M4.406 1.342A5.53 5.53 0 0 1 8 0c2.69 0 4.923 2 5.166 4.579C14.758 4.804 16 6.137 16 7.773 16 9.569 14.502 11 12.687 11H10a.5.5 0 0 1 0-1h2.688C13.979 10 15 8.988 15 7.773c0-1.216-1.02-2.228-2.313-2.228h-.5v-.5C12.188 2.825 10.328 1 8 1a4.53 4.53 0 0 0-2.941 1.1c-.757.652-1.153 1.438-1.153 2.055v.448l-.445.049C2.064 4.805 1 5.952 1 7.318 1 8.785 2.23 10 3.781 10H6a.5.5 0 0 1 0 1H3.781C1.708 11 0 9.366 0 7.318c0-1.763 1.266-3.223 2.942-3.593.143-.863.698-1.723 1.464-2.383"></path>
		<path fill-rule="evenodd" d="M7.646 4.146a.5.5 0 0 1 .708 0l3 3a.5.5 0 0 1-.708.708L8.5 5.707V14.5a.5.5 0 0 1-1 0V5.707L5.354 7.854a.5.5 0 1 1-.708-.708z"></path>
	</symbol>
	<symbol xmlns="http://www.w3.org/2000/svg" fill="currentColor" viewBox="0 0 16 16" id="minecart-loaded">
		<path d="M4 15a1 1 0 1 1 0-2 1 1 0 0 1 0 2m0 1a2 2 0 1 0 0-4 2 2 0 0 0 0 4m8-1a1 1 0 1 1 0-2 1 1 0 0 1 0 2m0 1a2 2 0 1 0 0-4 2 2 0 0 0 0 4M.115 3.18A.5.5 0 0 1 .5 3h15a.5.5 0 0 1 .491.592l-1.5 8A.5.5 0 0 1 14 12H2a.5.5 0 0 1-.491-.408l-1.5-8a.5.5 0 0 1 .106-.411zm.987.82 1.313 7h11.17l1.313-7z"></path>
		<path fill-rule="evenodd" d="M6 1a2.498 2.498 0 0 1 4 0c.818 0 1.545.394 2 1 .67 0 1.552.57 2 1h-2c-.314 0-.611-.15-.8-.4-.274-.365-.71-.6-1.2-.6-.314 0-.611-.15-.8-.4a1.497 1.497 0 0 0-2.4 0c-.189.25-.486.4-.8.4-.507 0-.955.251-1.228.638q-.136.194-.308.362H3c.13-.147.401-.432.562-.545a1.6 1.6 0 0 0 .393-.393A2.5 2.5 0 0 1 6 1"></path>
	</symbol>
	<symbol xmlns="http://www.w3.org/2000/svg" fill="currentColor" viewBox="0 0 16 16" id="pen">
		<path d="m13.498.795.149-.149a1.207 1.207 0 1 1 1.707 1.708l-.149.148a1.5 1.5 0 0 1-.059 2.059L4.854 14.854a.5.5 0 0 1-.233.131l-4 1a.5.5 0 0 1-.606-.606l1-4a.5.5 0 0 1 .131-.232l9.642-9.642a.5.5 0 0 0-.642.056L6.854 4.854a.5.5 0 1 1-.708-.708L9.44.854A1.5 1.5 0 0 1 11.5.796a1.5 1.5 0 0 1 1.998-.001m-.644.766a.5.5 0 0 0-.707 0L1.95 11.756l-.764 3.057 3.057-.764L14.44 3.854a.5.5 0 0 0 0-.708z"></path>
	</symbol>
	<symbol xmlns="http://www.w3.org/2000/svg" fill="currentColor" viewBox="0 0 16 16" id="boxes">
		<path d="M7.752.066a.5.5 0 0 1 .496 0l3.75 2.143a.5.5 0 0 1 .252.434v3.995l3.498 2A.5.5 0 0 1 16 9.07v4.286a.5.5 0 0 1-.252.434l-3.75 2.143a.5.5 0 0 1-.496 0l-3.502-2-3.502 2.001a.5.5 0 0 1-.496 0l-3.75-2.143A.5.5 0 0 1 0 13.357V9.071a.5.5 0 0 1 .252-.434L3.75 6.638V2.643a.5.5 0 0 1 .252-.434zM4.25 7.504 1.508 9.071l2.742 1.567 2.742-1.567zM7.5 9.933l-2.75 1.571v3.134l2.75-1.571zm1 3.134 2.75 1.571v-3.134L8.5 9.933zm.508-3.996 2.742 1.567 2.742-1.567-2.742-1.567zm2.242-2.433V3.504L8.5 5.076V8.21zM7.5 8.21V5.076L4.75 3.504v3.134zM5.258 2.643 8 4.21l2.742-1.567L8 1.076zM15 9.933l-2.75 1.571v3.134L15 13.067zM3.75 14.638v-3.134L1 9.933v3.134z"></path>
	</symbol>
	<symbol xmlns="http://www.w3.org/2000/svg" fill="currentColor" viewBox="0 0 16 16" id="cart">
		<path d="M0 1.5A.5.5 0 0 1 .5 1H2a.5.5 0 0 1 .485.379L2.89 3H14.5a.5.5 0 0 1 .491.592l-1.5 8A.5.5 0 0 1 13 12H4a.5.5 0 0 1-.491-.408L2.01 3.607 1.61 2H.5a.5.5 0 0 1-.5-.5M3.102 4l1.313 7h8.17l1.313-7zM5 12a2 2 0 1 0 0 4 2 2 0 0 0 0-4m7 0a2 2 0 1 0 0 4 2 2 0 0 0 0-4m-7 1a1 1 0 1 1 0 2 1 1 0 0 1 0-2m7 0a1 1 0 1 1 0 2 1 1 0 0 1 0-2"></path>
	</symbol>
	<symbol xmlns="http://www.w3.org/2000/svg" fill="currentColor" viewBox="0 0 16 16" id="gear">
		<path d="M8 4.754a3.246 3.246 0 1 0 0 6.492 3.246 3.246 0 0 0 0-6.492M5.754 8a2.246 2.246 0 1 1 4.492 0 2.246 2.246 0 0 1-4.492 0"></path>
		<path d="M9.796 1.343c-.527-1.79-3.065-1.79-3.592 0l-.094.319a.873.873 0 0 1-1.255.52l-.292-.16c-1.64-.892-3.433.902-2.54 2.541l.159.292a.873.873 0 0 1-.52 1.255l-.319.094c-1.79.527-1.79 3.065 0 3.592l.319.094a.873.873 0 0 1 .52 1.255l-.16.292c-.892 1.64.901 3.434 2.541 2.54l.292-.159a.873.873 0 0 1 1.255.52l.094.319c.527 1.79 3.065 1.79 3.592 0l.094-.319a.873.873 0 0 1 1.255-.52l.292.16c1.64.893 3.434-.902 2.54-2.541l-.159-.292a.873.873 0 0 1 .52-1.255l.319-.094c1.79-.527 1.79-3.065 0-3.592l-.319-.094a.873.873 0 0 1-.52-1.255l.16-.292c.893-1.64-.902-3.433-2.541-2.54l-.292.159a.873.873 0 0 1-1.255-.52zm-2.633.283c.246-.835 1.428-.835 1.674 0l.094.319a1.873 1.873 0 0 0 2.693 1.115l.291-.16c.764-.415 1.6.42 1.184 1.185l-.159.292a1.873 1.873 0 0 0 1.116 2.692l.318.094c.835.246.835 1.428 0 1.674l-.319.094a1.873 1.873 0 0 0-1.115 2.693l.16.291c.415.764-.42 1.6-1.185 1.184l-.291-.159a1.873 1.873 0 0 0-2.693 1.116l-.094.318c-.246.835-1.428.835-1.674 0l-.094-.319a1.873 1.873 0 0 0-2.692-1.115l-.292.16c-.764.415-1.6-.42-1.184-1.185l.159-.291A1.873 1.873 0 0 0 1.945 8.93l-.319-.094c-.835-.246-.835-1.428 0-1.674l.319-.094A1.873 1.873 0 0 0 3.06 4.377l-.16-.292c-.415-.764.42-1.6 1.185-1.184l.292.159a1.873 1.873 0 0 0 2.692-1.115z"></path>
	</symbol>
	<symbol xmlns="http://www.w3.org/2000/svg" fill="currentColor" viewBox="0 0 16 16" id="table">
		<path d="M0 2a2 2 0 0 1 2-2h12a2 2 0 0 1 2 2v12a2 2 0 0 1-2 2H2a2 2 0 0 1-2-2zm15 2h-4v3h4zm0 4h-4v3h4zm0 4h-4v3h3a1 1 0 0 0 1-1zm-5 3v-3H6v3zm-5 0v-3H1v2a1 1 0 0 0 1 1zm-4-4h4V8H1zm0-4h4V4H1zm5-3v3h4V4zm4 4H6v3h4z"></path>
	</symbol>
	<symbol xmlns="http://www.w3.org/2000/svg" fill="currentColor" viewBox="0 0 16 16" id="list-ul">
		<path fill-rule="evenodd" d="M5 11.5a.5.5 0 0 1 .5-.5h9a.5.5 0 0 1 0 1h-9a.5.5 0 0 1-.5-.5m0-4a.5.5 0 0 1 .5-.5h9a.5.5 0 0 1 0 1h-9a.5.5 0 0 1-.5-.5m0-4a.5.5 0 0 1 .5-.5h9a.5.5 0 0 1 0 1h-9a.5.5 0 0 1-.5-.5m-3 1a1 1 0 1 0 0-2 1 1 0 0 0 0 2m0 4a1 1 0 1 0 0-2 1 1 0 0 0 0 2m0 4a1 1 0 1 0 0-2 1 1 0 0 0 0 2"></path>
	</symbol>
	<symbol xmlns="http://www.w3.org/2000/svg" fill="currentColor" viewBox="0 0 16 16" id="android2">
		<path d="m10.213 1.471.691-1.26q.069-.124-.048-.192-.128-.057-.195.058l-.7 1.27A4.8 4.8 0 0 0 8.005.941q-1.032 0-1.956.404l-.7-1.27Q5.281-.037 5.154.02q-.117.069-.049.193l.691 1.259a4.25 4.25 0 0 0-1.673 1.476A3.7 3.7 0 0 0 3.5 5.02h9q0-1.125-.623-2.072a4.27 4.27 0 0 0-1.664-1.476ZM6.22 3.303a.37.37 0 0 1-.267.11.35.35 0 0 1-.263-.11.37.37 0 0 1-.107-.264.37.37 0 0 1 .107-.265.35.35 0 0 1 .263-.11q.155 0 .267.11a.36.36 0 0 1 .112.265.36.36 0 0 1-.112.264m4.101 0a.35.35 0 0 1-.262.11.37.37 0 0 1-.268-.11.36.36 0 0 1-.112-.264q0-.154.112-.265a.37.37 0 0 1 .268-.11q.155 0 .262.11a.37.37 0 0 1 .107.265q0 .153-.107.264M3.5 11.77q0 .441.311.75.311.306.76.307h.758l.01 2.182q0 .414.292.703a.96.96 0 0 0 .7.288.97.97 0 0 0 .71-.288.95.95 0 0 0 .292-.703v-2.182h1.343v2.182q0 .414.292.703a.97.97 0 0 0 .71.288.97.97 0 0 0 .71-.288.95.95 0 0 0 .292-.703v-2.182h.76q.436 0 .749-.308.31-.307.311-.75V5.365h-9zm10.495-6.587a.98.98 0 0 0-.702.278.9.9 0 0 0-.293.685v4.063q0 .406.293.69a.97.97 0 0 0 .702.284q.42 0 .712-.284a.92.92 0 0 0 .293-.69V6.146a.9.9 0 0 0-.293-.685 1 1 0 0 0-.712-.278m-12.702.283a1 1 0 0 1 .712-.283q.41 0 .702.283a.9.9 0 0 1 .293.68v4.063a.93.93 0 0 1-.288.69.97.97 0 0 1-.707.284 1 1 0 0 1-.712-.284.92.92 0 0 1-.293-.69V6.146q0-.396.293-.68"></path>
	</symbol>
	<symbol xmlns="http://www.w3.org/2000/svg" fill="currentColor" viewBox="0 0 16 16" id="google-play">
		<path d="M14.222 9.374c1.037-.61 1.037-2.137 0-2.748L11.528 5.04 8.32 8l3.207 2.96zm-3.595 2.116L7.583 8.68 1.03 14.73c.201 1.029 1.36 1.61 2.303 1.055zM1 13.396V2.603L6.846 8zM1.03 1.27l6.553 6.05 3.044-2.81L3.333.215C2.39-.341 1.231.24 1.03 1.27"></path>
	</symbol>
	<symbol viewBox="0 0 0 0" id="sprite">
		<symbol xmlns="http://www.w3.org/2000/svg" fill="currentColor" viewBox="0 0 16 16" id="bing">
			<path d="M8.35 5.046a.615.615 0 0 0-.54.575c-.009.13-.006.14.289.899.67 1.727.833 2.142.86 2.2q.101.215.277.395c.089.092.148.141.247.208.176.117.262.15.944.351.664.197 1.026.327 1.338.482.405.201.688.43.866.7.128.195.242.544.291.896.02.137.02.44 0 .564-.041.27-.124.495-.252.684-.067.1-.044.084.055-.039.278-.346.562-.938.707-1.475a4.42 4.42 0 0 0-2.14-5.028 70 70 0 0 0-.888-.465l-.53-.277-.353-.184c-.16-.082-.266-.138-.345-.18-.368-.192-.523-.27-.568-.283a1 1 0 0 0-.194-.03z"></path>
			<path d="M9.152 11.493a3 3 0 0 0-.135.083 320 320 0 0 0-1.513.934l-.8.496c-.012.01-.587.367-.876.543a1.9 1.9 0 0 1-.732.257c-.12.017-.349.017-.47 0a1.9 1.9 0 0 1-.884-.358 2.5 2.5 0 0 1-.365-.364 1.9 1.9 0 0 1-.34-.76 1 1 0 0 0-.027-.121c-.005-.006.004.092.022.22.018.132.057.324.098.489a4.1 4.1 0 0 0 2.487 2.796c.359.142.72.23 1.114.275.147.016.566.023.72.011a4.1 4.1 0 0 0 1.956-.661l.235-.149.394-.248.258-.163 1.164-.736c.51-.32.663-.433.9-.665.099-.097.248-.262.255-.283.002-.005.028-.046.059-.091a1.64 1.64 0 0 0 .25-.682c.02-.124.02-.427 0-.565a3 3 0 0 0-.213-.758c-.15-.314-.47-.6-.928-.83a2 2 0 0 0-.273-.12c-.006 0-.433.26-.948.58l-1.113.687z"></path>
			<path d="m3.004 12.184.03.129c.089.402.245.693.515.963a1.82 1.82 0 0 0 1.312.543c.361 0 .673-.09.994-.287l.472-.29.373-.23V5.334c0-1.537-.003-2.45-.008-2.521a1.82 1.82 0 0 0-.535-1.177c-.097-.096-.18-.16-.427-.33L4.183.24c-.239-.163-.258-.175-.33-.2a.63.63 0 0 0-.842.464c-.009.042-.01.603-.01 3.646l.003 8.035Z"></path>
		</symbol>
		<symbol xmlns="http://www.w3.org/2000/svg" fill="currentColor" viewBox="0 0 16 16" id="list">
			<path fill-rule="evenodd" d="M2.5 12a.5.5 0 0 1 .5-.5h10a.5.5 0 0 1 0 1H3a.5.5 0 0 1-.5-.5m0-4a.5.5 0 0 1 .5-.5h10a.5.5 0 0 1 0 1H3a.5.5 0 0 1-.5-.5m0-4a.5.5 0 0 1 .5-.5h10a.5.5 0 0 1 0 1H3a.5.5 0 0 1-.5-.5"></path>
		</symbol>
		<symbol xmlns="http://www.w3.org/2000/svg" fill="currentColor" viewBox="0 0 16 16" id="three-dots">
			<path d="M3 9.5a1.5 1.5 0 1 1 0-3 1.5 1.5 0 0 1 0 3m5 0a1.5 1.5 0 1 1 0-3 1.5 1.5 0 0 1 0 3m5 0a1.5 1.5 0 1 1 0-3 1.5 1.5 0 0 1 0 3"></path>
		</symbol>
		<symbol xmlns="http://www.w3.org/2000/svg" fill="currentColor" viewBox="0 0 16 16" id="three-dots-vertical">
			<path d="M9.5 13a1.5 1.5 0 1 1-3 0 1.5 1.5 0 0 1 3 0m0-5a1.5 1.5 0 1 1-3 0 1.5 1.5 0 0 1 3 0m0-5a1.5 1.5 0 1 1-3 0 1.5 1.5 0 0 1 3 0"></path>
		</symbol>
		<symbol xmlns="http://www.w3.org/2000/svg" fill="currentColor" viewBox="0 0 16 16" id="0-circle">
			<path d="M7.988 12.158c-1.851 0-2.941-1.57-2.941-3.99V7.84c0-2.408 1.101-3.996 2.965-3.996 1.857 0 2.935 1.57 2.935 3.996v.328c0 2.408-1.101 3.99-2.959 3.99M8 4.951c-1.008 0-1.629 1.09-1.629 2.895v.31c0 1.81.627 2.895 1.629 2.895s1.623-1.09 1.623-2.895v-.31c0-1.8-.621-2.895-1.623-2.895"></path>
			<path d="M16 8A8 8 0 1 1 0 8a8 8 0 0 1 16 0M1 8a7 7 0 1 0 14 0A7 7 0 0 0 1 8"></path>
		</symbol>
		<symbol xmlns="http://www.w3.org/2000/svg" fill="currentColor" viewBox="0 0 16 16" id="facebook">
			<path d="M16 8.049c0-4.446-3.582-8.05-8-8.05C3.58 0-.002 3.603-.002 8.05c0 4.017 2.926 7.347 6.75 7.951v-5.625h-2.03V8.05H6.75V6.275c0-2.017 1.195-3.131 3.022-3.131.876 0 1.791.157 1.791.157v1.98h-1.009c-.993 0-1.303.621-1.303 1.258v1.51h2.218l-.354 2.326H9.25V16c3.824-.604 6.75-3.934 6.75-7.951"></path>
		</symbol>
		<symbol xmlns="http://www.w3.org/2000/svg" fill="currentColor" viewBox="0 0 16 16" id="linkedin">
			<path d="M0 1.146C0 .513.526 0 1.175 0h13.65C15.474 0 16 .513 16 1.146v13.708c0 .633-.526 1.146-1.175 1.146H1.175C.526 16 0 15.487 0 14.854zm4.943 12.248V6.169H2.542v7.225zm-1.2-8.212c.837 0 1.358-.554 1.358-1.248-.015-.709-.52-1.248-1.342-1.248S2.4 3.226 2.4 3.934c0 .694.521 1.248 1.327 1.248zm4.908 8.212V9.359c0-.216.016-.432.08-.586.173-.431.568-.878 1.232-.878.869 0 1.216.662 1.216 1.634v3.865h2.401V9.25c0-2.22-1.184-3.252-2.764-3.252-1.274 0-1.845.7-2.165 1.193v.025h-.016l.016-.025V6.169h-2.4c.03.678 0 7.225 0 7.225z"></path>
		</symbol>
		<symbol xmlns="http://www.w3.org/2000/svg" fill="currentColor" viewBox="0 0 16 16" id="github">
			<path d="M8 0C3.58 0 0 3.58 0 8c0 3.54 2.29 6.53 5.47 7.59.4.07.55-.17.55-.38 0-.19-.01-.82-.01-1.49-2.01.37-2.53-.49-2.69-.94-.09-.23-.48-.94-.82-1.13-.28-.15-.68-.52-.01-.53.63-.01 1.08.58 1.23.82.72 1.21 1.87.87 2.33.66.07-.52.28-.87.51-1.07-1.78-.2-3.64-.89-3.64-3.95 0-.87.31-1.59.82-2.15-.08-.2-.36-1.02.08-2.12 0 0 .67-.21 2.2.82.64-.18 1.32-.27 2-.27s1.36.09 2 .27c1.53-1.04 2.2-.82 2.2-.82.44 1.1.16 1.92.08 2.12.51.56.82 1.27.82 2.15 0 3.07-1.87 3.75-3.65 3.95.29.25.54.73.54 1.48 0 1.07-.01 1.93-.01 2.2 0 .21.15.46.55.38A8.01 8.01 0 0 0 16 8c0-4.42-3.58-8-8-8"></path>
		</symbol>
		<symbol xmlns="http://www.w3.org/2000/svg" fill="currentColor" viewBox="0 0 16 16" id="google">
			<path d="M15.545 6.558a9.4 9.4 0 0 1 .139 1.626c0 2.434-.87 4.492-2.384 5.885h.002C11.978 15.292 10.158 16 8 16A8 8 0 1 1 8 0a7.7 7.7 0 0 1 5.352 2.082l-2.284 2.284A4.35 4.35 0 0 0 8 3.166c-2.087 0-3.86 1.408-4.492 3.304a4.8 4.8 0 0 0 0 3.063h.003c.635 1.893 2.405 3.301 4.492 3.301 1.078 0 2.004-.276 2.722-.764h-.003a3.7 3.7 0 0 0 1.599-2.431H8v-3.08z"></path>
		</symbol>
		<symbol xmlns="http://www.w3.org/2000/svg" fill="currentColor" viewBox="0 0 16 16" id="instagram">
			<path d="M8 0C5.829 0 5.556.01 4.703.048 3.85.088 3.269.222 2.76.42a3.9 3.9 0 0 0-1.417.923A3.9 3.9 0 0 0 .42 2.76C.222 3.268.087 3.85.048 4.7.01 5.555 0 5.827 0 8.001c0 2.172.01 2.444.048 3.297.04.852.174 1.433.372 1.942.205.526.478.972.923 1.417.444.445.89.719 1.416.923.51.198 1.09.333 1.942.372C5.555 15.99 5.827 16 8 16s2.444-.01 3.298-.048c.851-.04 1.434-.174 1.943-.372a3.9 3.9 0 0 0 1.416-.923c.445-.445.718-.891.923-1.417.197-.509.332-1.09.372-1.942C15.99 10.445 16 10.173 16 8s-.01-2.445-.048-3.299c-.04-.851-.175-1.433-.372-1.941a3.9 3.9 0 0 0-.923-1.417A3.9 3.9 0 0 0 13.24.42c-.51-.198-1.092-.333-1.943-.372C10.443.01 10.172 0 7.998 0zm-.717 1.442h.718c2.136 0 2.389.007 3.232.046.78.035 1.204.166 1.486.275.373.145.64.319.92.599s.453.546.598.92c.11.281.24.705.275 1.485.039.843.047 1.096.047 3.231s-.008 2.389-.047 3.232c-.035.78-.166 1.203-.275 1.485a2.5 2.5 0 0 1-.599.919c-.28.28-.546.453-.92.598-.28.11-.704.24-1.485.276-.843.038-1.096.047-3.232.047s-2.39-.009-3.233-.047c-.78-.036-1.203-.166-1.485-.276a2.5 2.5 0 0 1-.92-.598 2.5 2.5 0 0 1-.6-.92c-.109-.281-.24-.705-.275-1.485-.038-.843-.046-1.096-.046-3.233s.008-2.388.046-3.231c.036-.78.166-1.204.276-1.486.145-.373.319-.64.599-.92s.546-.453.92-.598c.282-.11.705-.24 1.485-.276.738-.034 1.024-.044 2.515-.045zm4.988 1.328a.96.96 0 1 0 0 1.92.96.96 0 0 0 0-1.92m-4.27 1.122a4.109 4.109 0 1 0 0 8.217 4.109 4.109 0 0 0 0-8.217m0 1.441a2.667 2.667 0 1 1 0 5.334 2.667 2.667 0 0 1 0-5.334"></path>
		</symbol>
		<symbol xmlns="http://www.w3.org/2000/svg" fill="currentColor" viewBox="0 0 16 16" id="messenger">
			<path d="M0 7.76C0 3.301 3.493 0 8 0s8 3.301 8 7.76-3.493 7.76-8 7.76c-.81 0-1.586-.107-2.316-.307a.64.64 0 0 0-.427.03l-1.588.702a.64.64 0 0 1-.898-.566l-.044-1.423a.64.64 0 0 0-.215-.456C.956 12.108 0 10.092 0 7.76m5.546-1.459-2.35 3.728c-.225.358.214.761.551.506l2.525-1.916a.48.48 0 0 1 .578-.002l1.869 1.402a1.2 1.2 0 0 0 1.735-.32l2.35-3.728c.226-.358-.214-.761-.551-.506L9.728 7.381a.48.48 0 0 1-.578.002L7.281 5.98a1.2 1.2 0 0 0-1.735.32z"></path>
		</symbol>
		<symbol xmlns="http://www.w3.org/2000/svg" fill="currentColor" viewBox="0 0 16 16" id="paypal">
			<path d="M14.06 3.713c.12-1.071-.093-1.832-.702-2.526C12.628.356 11.312 0 9.626 0H4.734a.7.7 0 0 0-.691.59L2.005 13.509a.42.42 0 0 0 .415.486h2.756l-.202 1.28a.628.628 0 0 0 .62.726H8.14c.429 0 .793-.31.862-.731l.025-.13.48-3.043.03-.164.001-.007a.35.35 0 0 1 .348-.297h.38c1.266 0 2.425-.256 3.345-.91q.57-.403.993-1.005a4.94 4.94 0 0 0 .88-2.195c.242-1.246.13-2.356-.57-3.154a2.7 2.7 0 0 0-.76-.59l-.094-.061ZM6.543 8.82a.7.7 0 0 1 .321-.079H8.3c2.82 0 5.027-1.144 5.672-4.456l.003-.016q.326.186.548.438c.546.623.679 1.535.45 2.71-.272 1.397-.866 2.307-1.663 2.874-.802.57-1.842.815-3.043.815h-.38a.87.87 0 0 0-.863.734l-.03.164-.48 3.043-.024.13-.001.004a.35.35 0 0 1-.348.296H5.595a.106.106 0 0 1-.105-.123l.208-1.32z"></path>
		</symbol>
		<symbol xmlns="http://www.w3.org/2000/svg" fill="currentColor" viewBox="0 0 16 16" id="skype">
			<path d="M4.671 0c.88 0 1.733.247 2.468.702a7.42 7.42 0 0 1 6.02 2.118 7.37 7.37 0 0 1 2.167 5.215q0 .517-.072 1.026a4.66 4.66 0 0 1 .6 2.281 4.64 4.64 0 0 1-1.37 3.294A4.67 4.67 0 0 1 11.18 16c-.84 0-1.658-.226-2.37-.644a7.42 7.42 0 0 1-6.114-2.107A7.37 7.37 0 0 1 .529 8.035q0-.545.08-1.081a4.644 4.644 0 0 1 .76-5.59A4.68 4.68 0 0 1 4.67 0zm.447 7.01c.18.309.43.572.729.769a7 7 0 0 0 1.257.653q.737.308 1.145.523c.229.112.437.264.615.448.135.142.21.331.21.528a.87.87 0 0 1-.335.723c-.291.196-.64.289-.99.264a2.6 2.6 0 0 1-1.048-.206 11 11 0 0 1-.532-.253 1.3 1.3 0 0 0-.587-.15.72.72 0 0 0-.501.176.63.63 0 0 0-.195.491.8.8 0 0 0 .148.482 1.2 1.2 0 0 0 .456.354 5.1 5.1 0 0 0 2.212.419 4.6 4.6 0 0 0 1.624-.265 2.3 2.3 0 0 0 1.08-.801c.267-.39.402-.855.386-1.327a2.1 2.1 0 0 0-.279-1.101 2.5 2.5 0 0 0-.772-.792A7 7 0 0 0 8.486 7.3a1 1 0 0 0-.145-.058 18 18 0 0 1-1.013-.447 1.8 1.8 0 0 1-.54-.387.73.73 0 0 1-.2-.508.8.8 0 0 1 .385-.723 1.76 1.76 0 0 1 .968-.247c.26-.003.52.03.772.096q.412.119.802.293c.105.049.22.075.336.076a.6.6 0 0 0 .453-.19.7.7 0 0 0 .18-.496.72.72 0 0 0-.17-.476 1.4 1.4 0 0 0-.556-.354 3.7 3.7 0 0 0-.708-.183 6 6 0 0 0-1.022-.078 4.5 4.5 0 0 0-1.536.258 2.7 2.7 0 0 0-1.174.784 1.9 1.9 0 0 0-.45 1.287c-.01.37.076.736.25 1.063"></path>
		</symbol>
		<symbol xmlns="http://www.w3.org/2000/svg" fill="currentColor" viewBox="0 0 16 16" id="whatsapp">
			<path d="M13.601 2.326A7.85 7.85 0 0 0 7.994 0C3.627 0 .068 3.558.064 7.926c0 1.399.366 2.76 1.057 3.965L0 16l4.204-1.102a7.9 7.9 0 0 0 3.79.965h.004c4.368 0 7.926-3.558 7.93-7.93A7.9 7.9 0 0 0 13.6 2.326zM7.994 14.521a6.6 6.6 0 0 1-3.356-.92l-.24-.144-2.494.654.666-2.433-.156-.251a6.56 6.56 0 0 1-1.007-3.505c0-3.626 2.957-6.584 6.591-6.584a6.56 6.56 0 0 1 4.66 1.931 6.56 6.56 0 0 1 1.928 4.66c-.004 3.639-2.961 6.592-6.592 6.592m3.615-4.934c-.197-.099-1.17-.578-1.353-.646-.182-.065-.315-.099-.445.099-.133.197-.513.646-.627.775-.114.133-.232.148-.43.05-.197-.1-.836-.308-1.592-.985-.59-.525-.985-1.175-1.103-1.372-.114-.198-.011-.304.088-.403.087-.088.197-.232.296-.346.1-.114.133-.198.198-.33.065-.134.034-.248-.015-.347-.05-.099-.445-1.076-.612-1.47-.16-.389-.323-.335-.445-.34-.114-.007-.247-.007-.38-.007a.73.73 0 0 0-.529.247c-.182.198-.691.677-.691 1.654s.71 1.916.81 2.049c.098.133 1.394 2.132 3.383 2.992.47.205.84.326 1.129.418.475.152.904.129 1.246.08.38-.058 1.171-.48 1.338-.943.164-.464.164-.86.114-.943-.049-.084-.182-.133-.38-.232"></path>
		</symbol>
		<symbol xmlns="http://www.w3.org/2000/svg" fill="currentColor" viewBox="0 0 16 16" id="threads">
			<path d="M6.321 6.016c-.27-.18-1.166-.802-1.166-.802.756-1.081 1.753-1.502 3.132-1.502.975 0 1.803.327 2.394.948s.928 1.509 1.005 2.644q.492.207.905.484c1.109.745 1.719 1.86 1.719 3.137 0 2.716-2.226 5.075-6.256 5.075C4.594 16 1 13.987 1 7.994 1 2.034 4.482 0 8.044 0 9.69 0 13.55.243 15 5.036l-1.36.353C12.516 1.974 10.163 1.43 8.006 1.43c-3.565 0-5.582 2.171-5.582 6.79 0 4.143 2.254 6.343 5.63 6.343 2.777 0 4.847-1.443 4.847-3.556 0-1.438-1.208-2.127-1.27-2.127-.236 1.234-.868 3.31-3.644 3.31-1.618 0-3.013-1.118-3.013-2.582 0-2.09 1.984-2.847 3.55-2.847.586 0 1.294.04 1.663.114 0-.637-.54-1.728-1.9-1.728-1.25 0-1.566.405-1.967.868ZM8.716 8.19c-2.04 0-2.304.87-2.304 1.416 0 .878 1.043 1.168 1.6 1.168 1.02 0 2.067-.282 2.232-2.423a6.2 6.2 0 0 0-1.528-.161"></path>
		</symbol>
		<symbol xmlns="http://www.w3.org/2000/svg" fill="currentColor" viewBox="0 0 16 16" id="twitter-x">
			<path d="M12.6.75h2.454l-5.36 6.142L16 15.25h-4.937l-3.867-5.07-4.425 5.07H.316l5.733-6.57L0 .75h5.063l3.495 4.633L12.601.75Zm-.86 13.028h1.36L4.323 2.145H2.865z"></path>
		</symbol>
		<symbol xmlns="http://www.w3.org/2000/svg" fill="currentColor" viewBox="0 0 16 16" id="youtube">
			<path d="M8.051 1.999h.089c.822.003 4.987.033 6.11.335a2.01 2.01 0 0 1 1.415 1.42c.101.38.172.883.22 1.402l.01.104.022.26.008.104c.065.914.073 1.77.074 1.957v.075c-.001.194-.01 1.108-.082 2.06l-.008.105-.009.104c-.05.572-.124 1.14-.235 1.558a2.01 2.01 0 0 1-1.415 1.42c-1.16.312-5.569.334-6.18.335h-.142c-.309 0-1.587-.006-2.927-.052l-.17-.006-.087-.004-.171-.007-.171-.007c-1.11-.049-2.167-.128-2.654-.26a2.01 2.01 0 0 1-1.415-1.419c-.111-.417-.185-.986-.235-1.558L.09 9.82l-.008-.104A31 31 0 0 1 0 7.68v-.123c.002-.215.01-.958.064-1.778l.007-.103.003-.052.008-.104.022-.26.01-.104c.048-.519.119-1.023.22-1.402a2.01 2.01 0 0 1 1.415-1.42c.487-.13 1.544-.21 2.654-.26l.17-.007.172-.006.086-.003.171-.007A100 100 0 0 1 7.858 2zM6.4 5.209v4.818l4.157-2.408z"></path>
		</symbol>
		<symbol xmlns="http://www.w3.org/2000/svg" fill="currentColor" viewBox="0 0 16 16" id="twitter">
			<path d="M5.026 15c6.038 0 9.341-5.003 9.341-9.334q.002-.211-.006-.422A6.7 6.7 0 0 0 16 3.542a6.7 6.7 0 0 1-1.889.518 3.3 3.3 0 0 0 1.447-1.817 6.5 6.5 0 0 1-2.087.793A3.286 3.286 0 0 0 7.875 6.03a9.32 9.32 0 0 1-6.767-3.429 3.29 3.29 0 0 0 1.018 4.382A3.3 3.3 0 0 1 .64 6.575v.045a3.29 3.29 0 0 0 2.632 3.218 3.2 3.2 0 0 1-.865.115 3 3 0 0 1-.614-.057 3.28 3.28 0 0 0 3.067 2.277A6.6 6.6 0 0 1 .78 13.58a6 6 0 0 1-.78-.045A9.34 9.34 0 0 0 5.026 15"></path>
		</symbol>
		<symbol xmlns="http://www.w3.org/2000/svg" fill="currentColor" viewBox="0 0 16 16" id="microsoft-teams">
			<path d="M9.186 4.797a2.42 2.42 0 1 0-2.86-2.448h1.178c.929 0 1.682.753 1.682 1.682zm-4.295 7.738h2.613c.929 0 1.682-.753 1.682-1.682V5.58h2.783a.7.7 0 0 1 .682.716v4.294a4.197 4.197 0 0 1-4.093 4.293c-1.618-.04-3-.99-3.667-2.35Zm10.737-9.372a1.674 1.674 0 1 1-3.349 0 1.674 1.674 0 0 1 3.349 0m-2.238 9.488-.12-.002a5.2 5.2 0 0 0 .381-2.07V6.306a1.7 1.7 0 0 0-.15-.725h1.792c.39 0 .707.317.707.707v3.765a2.6 2.6 0 0 1-2.598 2.598z"></path>
			<path d="M.682 3.349h6.822c.377 0 .682.305.682.682v6.822a.68.68 0 0 1-.682.682H.682A.68.68 0 0 1 0 10.853V4.03c0-.377.305-.682.682-.682Zm5.206 2.596v-.72h-3.59v.72h1.357V9.66h.87V5.945z"></path>
		</symbol>
		<symbol xmlns="http://www.w3.org/2000/svg" fill="currentColor" viewBox="0 0 16 16" id="windows">
			<path d="M6.555 1.375 0 2.237v5.45h6.555zM0 13.795l6.555.933V8.313H0zm7.278-5.4.026 6.378L16 16V8.395zM16 0 7.33 1.244v6.414H16z"></path>
		</symbol>
		<symbol xmlns="http://www.w3.org/2000/svg" fill="currentColor" viewBox="0 0 16 16" id="xbox">
			<path d="M7.202 15.967a8 8 0 0 1-3.552-1.26c-.898-.585-1.101-.826-1.101-1.306 0-.965 1.062-2.656 2.879-4.583C6.459 7.723 7.897 6.44 8.052 6.475c.302.068 2.718 2.423 3.622 3.531 1.43 1.753 2.088 3.189 1.754 3.829-.254.486-1.83 1.437-2.987 1.802-.954.301-2.207.429-3.239.33m-5.866-3.57C.589 11.253.212 10.127.03 8.497c-.06-.539-.038-.846.137-1.95.218-1.377 1.002-2.97 1.945-3.95.401-.417.437-.427.926-.263.595.2 1.23.638 2.213 1.528l.574.519-.313.385C4.056 6.553 2.52 9.086 1.94 10.653c-.315.852-.442 1.707-.306 2.063.091.24.007.15-.3-.319Zm13.101.195c.074-.36-.019-1.02-.238-1.687-.473-1.443-2.055-4.128-3.508-5.953l-.457-.575.494-.454c.646-.593 1.095-.948 1.58-1.25.381-.237.927-.448 1.161-.448.145 0 .654.528 1.065 1.104a8.4 8.4 0 0 1 1.343 3.102c.153.728.166 2.286.024 3.012a9.5 9.5 0 0 1-.6 1.893c-.179.393-.624 1.156-.82 1.404-.1.128-.1.127-.043-.148ZM7.335 1.952c-.67-.34-1.704-.705-2.276-.803a4 4 0 0 0-.759-.043c-.471.024-.45 0 .306-.358A7.8 7.8 0 0 1 6.47.128c.8-.169 2.306-.17 3.094-.005.85.18 1.853.552 2.418.9l.168.103-.385-.02c-.766-.038-1.88.27-3.078.853-.361.176-.676.316-.699.312a12 12 0 0 1-.654-.319Z"></path>
		</symbol>
		<symbol xmlns="http://www.w3.org/2000/svg" fill="currentColor" viewBox="0 0 16 16" id="microsoft">
			<path d="M7.462 0H0v7.19h7.462zM16 0H8.538v7.19H16zM7.462 8.211H0V16h7.462zm8.538 0H8.538V16H16z"></path>
		</symbol>
	</symbol>
	<symbol xmlns="http://www.w3.org/2000/svg" fill="currentColor" viewBox="0 0 16 16" id="three-dots-vertical">
		<path d="M9.5 13a1.5 1.5 0 1 1-3 0 1.5 1.5 0 0 1 3 0m0-5a1.5 1.5 0 1 1-3 0 1.5 1.5 0 0 1 3 0m0-5a1.5 1.5 0 1 1-3 0 1.5 1.5 0 0 1 3 0"></path>
	</symbol>
	<symbol xmlns="http://www.w3.org/2000/svg" fill="currentColor" viewBox="0 0 16 16" id="three-dots">
		<path d="M3 9.5a1.5 1.5 0 1 1 0-3 1.5 1.5 0 0 1 0 3m5 0a1.5 1.5 0 1 1 0-3 1.5 1.5 0 0 1 0 3m5 0a1.5 1.5 0 1 1 0-3 1.5 1.5 0 0 1 0 3"></path>
	</symbol>
	<symbol xmlns="http://www.w3.org/2000/svg" fill="currentColor" viewBox="0 0 16 16" id="list">
		<path fill-rule="evenodd" d="M2.5 12a.5.5 0 0 1 .5-.5h10a.5.5 0 0 1 0 1H3a.5.5 0 0 1-.5-.5m0-4a.5.5 0 0 1 .5-.5h10a.5.5 0 0 1 0 1H3a.5.5 0 0 1-.5-.5m0-4a.5.5 0 0 1 .5-.5h10a.5.5 0 0 1 0 1H3a.5.5 0 0 1-.5-.5"></path>
	</symbol>
	<symbol xmlns="http://www.w3.org/2000/svg" fill="currentColor" viewBox="0 0 16 16" id="bing">
		<path d="M8.35 5.046a.615.615 0 0 0-.54.575c-.009.13-.006.14.289.899.67 1.727.833 2.142.86 2.2q.101.215.277.395c.089.092.148.141.247.208.176.117.262.15.944.351.664.197 1.026.327 1.338.482.405.201.688.43.866.7.128.195.242.544.291.896.02.137.02.44 0 .564-.041.27-.124.495-.252.684-.067.1-.044.084.055-.039.278-.346.562-.938.707-1.475a4.42 4.42 0 0 0-2.14-5.028 70 70 0 0 0-.888-.465l-.53-.277-.353-.184c-.16-.082-.266-.138-.345-.18-.368-.192-.523-.27-.568-.283a1 1 0 0 0-.194-.03z"></path>
		<path d="M9.152 11.493a3 3 0 0 0-.135.083 320 320 0 0 0-1.513.934l-.8.496c-.012.01-.587.367-.876.543a1.9 1.9 0 0 1-.732.257c-.12.017-.349.017-.47 0a1.9 1.9 0 0 1-.884-.358 2.5 2.5 0 0 1-.365-.364 1.9 1.9 0 0 1-.34-.76 1 1 0 0 0-.027-.121c-.005-.006.004.092.022.22.018.132.057.324.098.489a4.1 4.1 0 0 0 2.487 2.796c.359.142.72.23 1.114.275.147.016.566.023.72.011a4.1 4.1 0 0 0 1.956-.661l.235-.149.394-.248.258-.163 1.164-.736c.51-.32.663-.433.9-.665.099-.097.248-.262.255-.283.002-.005.028-.046.059-.091a1.64 1.64 0 0 0 .25-.682c.02-.124.02-.427 0-.565a3 3 0 0 0-.213-.758c-.15-.314-.47-.6-.928-.83a2 2 0 0 0-.273-.12c-.006 0-.433.26-.948.58l-1.113.687z"></path>
		<path d="m3.004 12.184.03.129c.089.402.245.693.515.963a1.82 1.82 0 0 0 1.312.543c.361 0 .673-.09.994-.287l.472-.29.373-.23V5.334c0-1.537-.003-2.45-.008-2.521a1.82 1.82 0 0 0-.535-1.177c-.097-.096-.18-.16-.427-.33L4.183.24c-.239-.163-.258-.175-.33-.2a.63.63 0 0 0-.842.464c-.009.042-.01.603-.01 3.646l.003 8.035Z"></path>
	</symbol>
	<symbol xmlns="http://www.w3.org/2000/svg" fill="currentColor" viewBox="0 0 16 16" id="microsoft">
		<path d="M7.462 0H0v7.19h7.462zM16 0H8.538v7.19H16zM7.462 8.211H0V16h7.462zm8.538 0H8.538V16H16z"></path>
	</symbol>
	<symbol xmlns="http://www.w3.org/2000/svg" fill="currentColor" viewBox="0 0 16 16" id="xbox">
		<path d="M7.202 15.967a8 8 0 0 1-3.552-1.26c-.898-.585-1.101-.826-1.101-1.306 0-.965 1.062-2.656 2.879-4.583C6.459 7.723 7.897 6.44 8.052 6.475c.302.068 2.718 2.423 3.622 3.531 1.43 1.753 2.088 3.189 1.754 3.829-.254.486-1.83 1.437-2.987 1.802-.954.301-2.207.429-3.239.33m-5.866-3.57C.589 11.253.212 10.127.03 8.497c-.06-.539-.038-.846.137-1.95.218-1.377 1.002-2.97 1.945-3.95.401-.417.437-.427.926-.263.595.2 1.23.638 2.213 1.528l.574.519-.313.385C4.056 6.553 2.52 9.086 1.94 10.653c-.315.852-.442 1.707-.306 2.063.091.24.007.15-.3-.319Zm13.101.195c.074-.36-.019-1.02-.238-1.687-.473-1.443-2.055-4.128-3.508-5.953l-.457-.575.494-.454c.646-.593 1.095-.948 1.58-1.25.381-.237.927-.448 1.161-.448.145 0 .654.528 1.065 1.104a8.4 8.4 0 0 1 1.343 3.102c.153.728.166 2.286.024 3.012a9.5 9.5 0 0 1-.6 1.893c-.179.393-.624 1.156-.82 1.404-.1.128-.1.127-.043-.148ZM7.335 1.952c-.67-.34-1.704-.705-2.276-.803a4 4 0 0 0-.759-.043c-.471.024-.45 0 .306-.358A7.8 7.8 0 0 1 6.47.128c.8-.169 2.306-.17 3.094-.005.85.18 1.853.552 2.418.9l.168.103-.385-.02c-.766-.038-1.88.27-3.078.853-.361.176-.676.316-.699.312a12 12 0 0 1-.654-.319Z"></path>
	</symbol>
	<symbol xmlns="http://www.w3.org/2000/svg" fill="currentColor" viewBox="0 0 16 16" id="windows">
		<path d="M6.555 1.375 0 2.237v5.45h6.555zM0 13.795l6.555.933V8.313H0zm7.278-5.4.026 6.378L16 16V8.395zM16 0 7.33 1.244v6.414H16z"></path>
	</symbol>
	<symbol xmlns="http://www.w3.org/2000/svg" fill="currentColor" viewBox="0 0 16 16" id="microsoft-teams">
		<path d="M9.186 4.797a2.42 2.42 0 1 0-2.86-2.448h1.178c.929 0 1.682.753 1.682 1.682zm-4.295 7.738h2.613c.929 0 1.682-.753 1.682-1.682V5.58h2.783a.7.7 0 0 1 .682.716v4.294a4.197 4.197 0 0 1-4.093 4.293c-1.618-.04-3-.99-3.667-2.35Zm10.737-9.372a1.674 1.674 0 1 1-3.349 0 1.674 1.674 0 0 1 3.349 0m-2.238 9.488-.12-.002a5.2 5.2 0 0 0 .381-2.07V6.306a1.7 1.7 0 0 0-.15-.725h1.792c.39 0 .707.317.707.707v3.765a2.6 2.6 0 0 1-2.598 2.598z"></path>
		<path d="M.682 3.349h6.822c.377 0 .682.305.682.682v6.822a.68.68 0 0 1-.682.682H.682A.68.68 0 0 1 0 10.853V4.03c0-.377.305-.682.682-.682Zm5.206 2.596v-.72h-3.59v.72h1.357V9.66h.87V5.945z"></path>
	</symbol>
	<symbol xmlns="http://www.w3.org/2000/svg" fill="currentColor" viewBox="0 0 16 16" id="youtube">
		<path d="M8.051 1.999h.089c.822.003 4.987.033 6.11.335a2.01 2.01 0 0 1 1.415 1.42c.101.38.172.883.22 1.402l.01.104.022.26.008.104c.065.914.073 1.77.074 1.957v.075c-.001.194-.01 1.108-.082 2.06l-.008.105-.009.104c-.05.572-.124 1.14-.235 1.558a2.01 2.01 0 0 1-1.415 1.42c-1.16.312-5.569.334-6.18.335h-.142c-.309 0-1.587-.006-2.927-.052l-.17-.006-.087-.004-.171-.007-.171-.007c-1.11-.049-2.167-.128-2.654-.26a2.01 2.01 0 0 1-1.415-1.419c-.111-.417-.185-.986-.235-1.558L.09 9.82l-.008-.104A31 31 0 0 1 0 7.68v-.123c.002-.215.01-.958.064-1.778l.007-.103.003-.052.008-.104.022-.26.01-.104c.048-.519.119-1.023.22-1.402a2.01 2.01 0 0 1 1.415-1.42c.487-.13 1.544-.21 2.654-.26l.17-.007.172-.006.086-.003.171-.007A100 100 0 0 1 7.858 2zM6.4 5.209v4.818l4.157-2.408z"></path>
	</symbol>
	<symbol xmlns="http://www.w3.org/2000/svg" fill="currentColor" viewBox="0 0 16 16" id="twitter-x">
		<path d="M12.6.75h2.454l-5.36 6.142L16 15.25h-4.937l-3.867-5.07-4.425 5.07H.316l5.733-6.57L0 .75h5.063l3.495 4.633L12.601.75Zm-.86 13.028h1.36L4.323 2.145H2.865z"></path>
	</symbol>
	<symbol xmlns="http://www.w3.org/2000/svg" fill="currentColor" viewBox="0 0 16 16" id="twitter">
		<path d="M5.026 15c6.038 0 9.341-5.003 9.341-9.334q.002-.211-.006-.422A6.7 6.7 0 0 0 16 3.542a6.7 6.7 0 0 1-1.889.518 3.3 3.3 0 0 0 1.447-1.817 6.5 6.5 0 0 1-2.087.793A3.286 3.286 0 0 0 7.875 6.03a9.32 9.32 0 0 1-6.767-3.429 3.29 3.29 0 0 0 1.018 4.382A3.3 3.3 0 0 1 .64 6.575v.045a3.29 3.29 0 0 0 2.632 3.218 3.2 3.2 0 0 1-.865.115 3 3 0 0 1-.614-.057 3.28 3.28 0 0 0 3.067 2.277A6.6 6.6 0 0 1 .78 13.58a6 6 0 0 1-.78-.045A9.34 9.34 0 0 0 5.026 15"></path>
	</symbol>
	<symbol xmlns="http://www.w3.org/2000/svg" fill="currentColor" viewBox="0 0 16 16" id="threads">
		<path d="M6.321 6.016c-.27-.18-1.166-.802-1.166-.802.756-1.081 1.753-1.502 3.132-1.502.975 0 1.803.327 2.394.948s.928 1.509 1.005 2.644q.492.207.905.484c1.109.745 1.719 1.86 1.719 3.137 0 2.716-2.226 5.075-6.256 5.075C4.594 16 1 13.987 1 7.994 1 2.034 4.482 0 8.044 0 9.69 0 13.55.243 15 5.036l-1.36.353C12.516 1.974 10.163 1.43 8.006 1.43c-3.565 0-5.582 2.171-5.582 6.79 0 4.143 2.254 6.343 5.63 6.343 2.777 0 4.847-1.443 4.847-3.556 0-1.438-1.208-2.127-1.27-2.127-.236 1.234-.868 3.31-3.644 3.31-1.618 0-3.013-1.118-3.013-2.582 0-2.09 1.984-2.847 3.55-2.847.586 0 1.294.04 1.663.114 0-.637-.54-1.728-1.9-1.728-1.25 0-1.566.405-1.967.868ZM8.716 8.19c-2.04 0-2.304.87-2.304 1.416 0 .878 1.043 1.168 1.6 1.168 1.02 0 2.067-.282 2.232-2.423a6.2 6.2 0 0 0-1.528-.161"></path>
	</symbol>
	<symbol xmlns="http://www.w3.org/2000/svg" fill="currentColor" viewBox="0 0 16 16" id="whatsapp">
		<path d="M13.601 2.326A7.85 7.85 0 0 0 7.994 0C3.627 0 .068 3.558.064 7.926c0 1.399.366 2.76 1.057 3.965L0 16l4.204-1.102a7.9 7.9 0 0 0 3.79.965h.004c4.368 0 7.926-3.558 7.93-7.93A7.9 7.9 0 0 0 13.6 2.326zM7.994 14.521a6.6 6.6 0 0 1-3.356-.92l-.24-.144-2.494.654.666-2.433-.156-.251a6.56 6.56 0 0 1-1.007-3.505c0-3.626 2.957-6.584 6.591-6.584a6.56 6.56 0 0 1 4.66 1.931 6.56 6.56 0 0 1 1.928 4.66c-.004 3.639-2.961 6.592-6.592 6.592m3.615-4.934c-.197-.099-1.17-.578-1.353-.646-.182-.065-.315-.099-.445.099-.133.197-.513.646-.627.775-.114.133-.232.148-.43.05-.197-.1-.836-.308-1.592-.985-.59-.525-.985-1.175-1.103-1.372-.114-.198-.011-.304.088-.403.087-.088.197-.232.296-.346.1-.114.133-.198.198-.33.065-.134.034-.248-.015-.347-.05-.099-.445-1.076-.612-1.47-.16-.389-.323-.335-.445-.34-.114-.007-.247-.007-.38-.007a.73.73 0 0 0-.529.247c-.182.198-.691.677-.691 1.654s.71 1.916.81 2.049c.098.133 1.394 2.132 3.383 2.992.47.205.84.326 1.129.418.475.152.904.129 1.246.08.38-.058 1.171-.48 1.338-.943.164-.464.164-.86.114-.943-.049-.084-.182-.133-.38-.232"></path>
	</symbol>
	<symbol xmlns="http://www.w3.org/2000/svg" fill="currentColor" viewBox="0 0 16 16" id="skype">
		<path d="M4.671 0c.88 0 1.733.247 2.468.702a7.42 7.42 0 0 1 6.02 2.118 7.37 7.37 0 0 1 2.167 5.215q0 .517-.072 1.026a4.66 4.66 0 0 1 .6 2.281 4.64 4.64 0 0 1-1.37 3.294A4.67 4.67 0 0 1 11.18 16c-.84 0-1.658-.226-2.37-.644a7.42 7.42 0 0 1-6.114-2.107A7.37 7.37 0 0 1 .529 8.035q0-.545.08-1.081a4.644 4.644 0 0 1 .76-5.59A4.68 4.68 0 0 1 4.67 0zm.447 7.01c.18.309.43.572.729.769a7 7 0 0 0 1.257.653q.737.308 1.145.523c.229.112.437.264.615.448.135.142.21.331.21.528a.87.87 0 0 1-.335.723c-.291.196-.64.289-.99.264a2.6 2.6 0 0 1-1.048-.206 11 11 0 0 1-.532-.253 1.3 1.3 0 0 0-.587-.15.72.72 0 0 0-.501.176.63.63 0 0 0-.195.491.8.8 0 0 0 .148.482 1.2 1.2 0 0 0 .456.354 5.1 5.1 0 0 0 2.212.419 4.6 4.6 0 0 0 1.624-.265 2.3 2.3 0 0 0 1.08-.801c.267-.39.402-.855.386-1.327a2.1 2.1 0 0 0-.279-1.101 2.5 2.5 0 0 0-.772-.792A7 7 0 0 0 8.486 7.3a1 1 0 0 0-.145-.058 18 18 0 0 1-1.013-.447 1.8 1.8 0 0 1-.54-.387.73.73 0 0 1-.2-.508.8.8 0 0 1 .385-.723 1.76 1.76 0 0 1 .968-.247c.26-.003.52.03.772.096q.412.119.802.293c.105.049.22.075.336.076a.6.6 0 0 0 .453-.19.7.7 0 0 0 .18-.496.72.72 0 0 0-.17-.476 1.4 1.4 0 0 0-.556-.354 3.7 3.7 0 0 0-.708-.183 6 6 0 0 0-1.022-.078 4.5 4.5 0 0 0-1.536.258 2.7 2.7 0 0 0-1.174.784 1.9 1.9 0 0 0-.45 1.287c-.01.37.076.736.25 1.063"></path>
	</symbol>
	<symbol xmlns="http://www.w3.org/2000/svg" fill="currentColor" viewBox="0 0 16 16" id="paypal">
		<path d="M14.06 3.713c.12-1.071-.093-1.832-.702-2.526C12.628.356 11.312 0 9.626 0H4.734a.7.7 0 0 0-.691.59L2.005 13.509a.42.42 0 0 0 .415.486h2.756l-.202 1.28a.628.628 0 0 0 .62.726H8.14c.429 0 .793-.31.862-.731l.025-.13.48-3.043.03-.164.001-.007a.35.35 0 0 1 .348-.297h.38c1.266 0 2.425-.256 3.345-.91q.57-.403.993-1.005a4.94 4.94 0 0 0 .88-2.195c.242-1.246.13-2.356-.57-3.154a2.7 2.7 0 0 0-.76-.59l-.094-.061ZM6.543 8.82a.7.7 0 0 1 .321-.079H8.3c2.82 0 5.027-1.144 5.672-4.456l.003-.016q.326.186.548.438c.546.623.679 1.535.45 2.71-.272 1.397-.866 2.307-1.663 2.874-.802.57-1.842.815-3.043.815h-.38a.87.87 0 0 0-.863.734l-.03.164-.48 3.043-.024.13-.001.004a.35.35 0 0 1-.348.296H5.595a.106.106 0 0 1-.105-.123l.208-1.32z"></path>
	</symbol>
	<symbol xmlns="http://www.w3.org/2000/svg" fill="currentColor" viewBox="0 0 16 16" id="messenger">
		<path d="M0 7.76C0 3.301 3.493 0 8 0s8 3.301 8 7.76-3.493 7.76-8 7.76c-.81 0-1.586-.107-2.316-.307a.64.64 0 0 0-.427.03l-1.588.702a.64.64 0 0 1-.898-.566l-.044-1.423a.64.64 0 0 0-.215-.456C.956 12.108 0 10.092 0 7.76m5.546-1.459-2.35 3.728c-.225.358.214.761.551.506l2.525-1.916a.48.48 0 0 1 .578-.002l1.869 1.402a1.2 1.2 0 0 0 1.735-.32l2.35-3.728c.226-.358-.214-.761-.551-.506L9.728 7.381a.48.48 0 0 1-.578.002L7.281 5.98a1.2 1.2 0 0 0-1.735.32z"></path>
	</symbol>
	<symbol xmlns="http://www.w3.org/2000/svg" fill="currentColor" viewBox="0 0 16 16" id="instagram">
		<path d="M8 0C5.829 0 5.556.01 4.703.048 3.85.088 3.269.222 2.76.42a3.9 3.9 0 0 0-1.417.923A3.9 3.9 0 0 0 .42 2.76C.222 3.268.087 3.85.048 4.7.01 5.555 0 5.827 0 8.001c0 2.172.01 2.444.048 3.297.04.852.174 1.433.372 1.942.205.526.478.972.923 1.417.444.445.89.719 1.416.923.51.198 1.09.333 1.942.372C5.555 15.99 5.827 16 8 16s2.444-.01 3.298-.048c.851-.04 1.434-.174 1.943-.372a3.9 3.9 0 0 0 1.416-.923c.445-.445.718-.891.923-1.417.197-.509.332-1.09.372-1.942C15.99 10.445 16 10.173 16 8s-.01-2.445-.048-3.299c-.04-.851-.175-1.433-.372-1.941a3.9 3.9 0 0 0-.923-1.417A3.9 3.9 0 0 0 13.24.42c-.51-.198-1.092-.333-1.943-.372C10.443.01 10.172 0 7.998 0zm-.717 1.442h.718c2.136 0 2.389.007 3.232.046.78.035 1.204.166 1.486.275.373.145.64.319.92.599s.453.546.598.92c.11.281.24.705.275 1.485.039.843.047 1.096.047 3.231s-.008 2.389-.047 3.232c-.035.78-.166 1.203-.275 1.485a2.5 2.5 0 0 1-.599.919c-.28.28-.546.453-.92.598-.28.11-.704.24-1.485.276-.843.038-1.096.047-3.232.047s-2.39-.009-3.233-.047c-.78-.036-1.203-.166-1.485-.276a2.5 2.5 0 0 1-.92-.598 2.5 2.5 0 0 1-.6-.92c-.109-.281-.24-.705-.275-1.485-.038-.843-.046-1.096-.046-3.233s.008-2.388.046-3.231c.036-.78.166-1.204.276-1.486.145-.373.319-.64.599-.92s.546-.453.92-.598c.282-.11.705-.24 1.485-.276.738-.034 1.024-.044 2.515-.045zm4.988 1.328a.96.96 0 1 0 0 1.92.96.96 0 0 0 0-1.92m-4.27 1.122a4.109 4.109 0 1 0 0 8.217 4.109 4.109 0 0 0 0-8.217m0 1.441a2.667 2.667 0 1 1 0 5.334 2.667 2.667 0 0 1 0-5.334"></path>
	</symbol>
	<symbol xmlns="http://www.w3.org/2000/svg" fill="currentColor" viewBox="0 0 16 16" id="google">
		<path d="M15.545 6.558a9.4 9.4 0 0 1 .139 1.626c0 2.434-.87 4.492-2.384 5.885h.002C11.978 15.292 10.158 16 8 16A8 8 0 1 1 8 0a7.7 7.7 0 0 1 5.352 2.082l-2.284 2.284A4.35 4.35 0 0 0 8 3.166c-2.087 0-3.86 1.408-4.492 3.304a4.8 4.8 0 0 0 0 3.063h.003c.635 1.893 2.405 3.301 4.492 3.301 1.078 0 2.004-.276 2.722-.764h-.003a3.7 3.7 0 0 0 1.599-2.431H8v-3.08z"></path>
	</symbol>
	<symbol xmlns="http://www.w3.org/2000/svg" fill="currentColor" viewBox="0 0 16 16" id="github">
		<path d="M8 0C3.58 0 0 3.58 0 8c0 3.54 2.29 6.53 5.47 7.59.4.07.55-.17.55-.38 0-.19-.01-.82-.01-1.49-2.01.37-2.53-.49-2.69-.94-.09-.23-.48-.94-.82-1.13-.28-.15-.68-.52-.01-.53.63-.01 1.08.58 1.23.82.72 1.21 1.87.87 2.33.66.07-.52.28-.87.51-1.07-1.78-.2-3.64-.89-3.64-3.95 0-.87.31-1.59.82-2.15-.08-.2-.36-1.02.08-2.12 0 0 .67-.21 2.2.82.64-.18 1.32-.27 2-.27s1.36.09 2 .27c1.53-1.04 2.2-.82 2.2-.82.44 1.1.16 1.92.08 2.12.51.56.82 1.27.82 2.15 0 3.07-1.87 3.75-3.65 3.95.29.25.54.73.54 1.48 0 1.07-.01 1.93-.01 2.2 0 .21.15.46.55.38A8.01 8.01 0 0 0 16 8c0-4.42-3.58-8-8-8"></path>
	</symbol>
	<symbol xmlns="http://www.w3.org/2000/svg" fill="currentColor" viewBox="0 0 16 16" id="linkedin">
		<path d="M0 1.146C0 .513.526 0 1.175 0h13.65C15.474 0 16 .513 16 1.146v13.708c0 .633-.526 1.146-1.175 1.146H1.175C.526 16 0 15.487 0 14.854zm4.943 12.248V6.169H2.542v7.225zm-1.2-8.212c.837 0 1.358-.554 1.358-1.248-.015-.709-.52-1.248-1.342-1.248S2.4 3.226 2.4 3.934c0 .694.521 1.248 1.327 1.248zm4.908 8.212V9.359c0-.216.016-.432.08-.586.173-.431.568-.878 1.232-.878.869 0 1.216.662 1.216 1.634v3.865h2.401V9.25c0-2.22-1.184-3.252-2.764-3.252-1.274 0-1.845.7-2.165 1.193v.025h-.016l.016-.025V6.169h-2.4c.03.678 0 7.225 0 7.225z"></path>
	</symbol>
	<symbol xmlns="http://www.w3.org/2000/svg" fill="currentColor" viewBox="0 0 16 16" id="facebook">
		<path d="M16 8.049c0-4.446-3.582-8.05-8-8.05C3.58 0-.002 3.603-.002 8.05c0 4.017 2.926 7.347 6.75 7.951v-5.625h-2.03V8.05H6.75V6.275c0-2.017 1.195-3.131 3.022-3.131.876 0 1.791.157 1.791.157v1.98h-1.009c-.993 0-1.303.621-1.303 1.258v1.51h2.218l-.354 2.326H9.25V16c3.824-.604 6.75-3.934 6.75-7.951"></path>
	</symbol>
	<symbol xmlns="http://www.w3.org/2000/svg" fill="currentColor" viewBox="0 0 16 16" id="0-circle">
		<path d="M7.988 12.158c-1.851 0-2.941-1.57-2.941-3.99V7.84c0-2.408 1.101-3.996 2.965-3.996 1.857 0 2.935 1.57 2.935 3.996v.328c0 2.408-1.101 3.99-2.959 3.99M8 4.951c-1.008 0-1.629 1.09-1.629 2.895v.31c0 1.81.627 2.895 1.629 2.895s1.623-1.09 1.623-2.895v-.31c0-1.8-.621-2.895-1.623-2.895"></path>
		<path d="M16 8A8 8 0 1 1 0 8a8 8 0 0 1 16 0M1 8a7 7 0 1 0 14 0A7 7 0 0 0 1 8"></path>
	</symbol>
</svg>